<?xml version="1.0" encoding="UTF-8" standalone="no"?>
<!DOCTYPE svg PUBLIC "-//W3C//DTD SVG 1.1//EN" "http://www.w3.org/Graphics/SVG/1.1/DTD/svg11.dtd">
<svg width="100%" height="100%" viewBox="0 0 120 380" version="1.1" xmlns="http://www.w3.org/2000/svg" xmlns:xlink="http://www.w3.org/1999/xlink" xml:space="preserve" xmlns:serif="http://www.serif.com/" style="fill-rule:evenodd;clip-rule:evenodd;stroke-miterlimit:10;">
    <g id="uuid-a41e0097-04fd-4feb-84ae-bef558c5c8c9" transform="matrix(1.041096,0,0,1.041096,0.657534,0)">
        <g transform="matrix(0.195844,0,0,1.007664,-1.665673,-1.560458)">
            <rect x="0" y="-0.019" width="603.78" height="364.25" style="fill:rgb(61,61,61);"/>
        </g>
        <g transform="matrix(0.771876,0,0,0.76104,-146.178863,65.587473)">
            <path d="M274.63,113.421C274.63,113.421 274.59,113.461 274.58,113.461C274.54,113.501 274.51,113.531 274.46,113.571C274.28,113.741 273.82,113.861 273.36,113.861C272.15,113.861 271.62,113.251 271.62,111.831L271.62,111.151C271.62,109.741 272.14,109.121 273.33,109.121C273.69,109.121 273.96,109.171 274.23,109.311C274.23,109.311 274.33,109.381 274.48,109.501L274.48,107.361L275.4,107.361L275.4,113.791L274.69,113.791L274.63,113.441L274.63,113.421ZM272.441,111.769C272.441,112.699 272.651,112.956 273.311,112.956C273.971,112.956 274.229,112.721 274.229,111.901L274.229,111.071C274.229,110.251 273.979,109.937 273.319,109.937C272.659,109.937 272.441,110.289 272.441,111.219L272.441,111.779L272.441,111.769Z" style="fill:rgb(212,175,55);fill-rule:nonzero;"/>
        </g>
        <g transform="matrix(0.979041,0,0,0.979041,2.521835,4.108383)">
            <path d="M43.18,149.941C43.13,150.861 42.55,151.321 41.43,151.321C40.74,151.321 40.28,151.121 39.98,150.701C39.75,150.381 39.66,149.991 39.66,149.281L39.66,148.221C39.66,147.441 39.77,147.041 40.05,146.711C40.36,146.351 40.79,146.181 41.43,146.181C42.51,146.181 43.06,146.641 43.11,147.601L42.27,147.661C42.21,147.161 41.94,146.921 41.44,146.921C40.8,146.921 40.57,147.281 40.57,148.281L40.57,149.221C40.57,150.231 40.79,150.581 41.45,150.581C41.96,150.581 42.25,150.341 42.32,149.841L43.17,149.941L43.18,149.941Z" style="fill:rgb(212,175,55);fill-rule:nonzero;"/>
            <path d="M43.65,146.241L44.57,146.241L45.73,150.001L46.89,146.241L47.81,146.241L46.13,151.241L45.34,151.241L43.66,146.241L43.65,146.241Z" style="fill:rgb(212,175,55);fill-rule:nonzero;"/>
            <path d="M51.04,146.101L51.9,146.101L50.23,151.381L49.37,151.381L51.04,146.101Z" style="fill:rgb(212,175,55);fill-rule:nonzero;"/>
            <path d="M54.66,150.251L54.34,151.241L53.35,151.241L55.16,146.241L56.05,146.241L57.86,151.241L56.87,151.241L56.56,150.251L54.66,150.251ZM55.6,147.331L54.87,149.521L56.32,149.521L55.6,147.331Z" style="fill:rgb(212,175,55);fill-rule:nonzero;"/>
            <path d="M59.21,147.651L59.21,149.601C59.21,150.301 59.37,150.571 59.78,150.571C60.23,150.571 60.39,150.281 60.39,149.491L60.39,147.641L61.26,147.641L61.26,151.231L60.66,151.231L60.56,150.891C60.36,151.181 60.1,151.301 59.62,151.301C59.01,151.301 58.62,151.071 58.46,150.611C58.39,150.411 58.36,150.131 58.36,149.691L58.36,147.641L59.23,147.641L59.21,147.651Z" style="fill:rgb(212,175,55);fill-rule:nonzero;"/>
            <path d="M66.26,146.201L67.13,146.201L67.13,147.091L66.26,147.091L66.26,146.201ZM66.26,147.651L67.13,147.651L67.13,151.241L66.26,151.241L66.26,147.651Z" style="fill:rgb(212,175,55);fill-rule:nonzero;"/>
            <path d="M68.06,149.181C68.06,148.051 68.52,147.581 69.61,147.581C70.7,147.581 71.16,148.061 71.16,149.181L71.16,149.721C71.16,150.851 70.7,151.321 69.61,151.321C68.52,151.321 68.06,150.841 68.06,149.721L68.06,149.181ZM70.3,149.231C70.3,148.541 70.1,148.261 69.62,148.261C69.14,148.261 68.93,148.541 68.93,149.231L68.93,149.651C68.93,150.341 69.13,150.621 69.62,150.621C70.11,150.621 70.3,150.341 70.3,149.651L70.3,149.231Z" style="fill:rgb(212,175,55);fill-rule:nonzero;"/>
        </g>
    </g>
    <g id="uuid-53cf9535-c3ae-4b4f-8f24-ffb70e6808b2" transform="matrix(1.041096,0,0,1.041096,0.657534,0)">
        <g transform="matrix(0.960526,0,0,0.960526,-0.631579,0)">
            <path d="M15.509,355.164C11.621,355.164 8.536,354.503 6.569,352.927C4.74,351.459 3.936,349.231 4.195,346.315C4.361,344.404 5.211,342.882 6.707,341.804C10.568,339.033 18.604,339.277 28.597,340.826C27.905,339.639 27.554,338.1 27.563,336.225C27.563,334.739 28.126,333.498 29.235,332.547C34.37,328.109 50.746,330.111 68.083,332.23C68.333,332.258 68.582,332.294 68.822,332.321C70.402,331.669 71.972,331.017 73.542,330.383C68.619,328.933 63.539,327.285 58.487,325.636C42.526,329.015 27.738,331.95 20.312,330.446C14.558,331.171 9.968,330.863 7.169,328.906C5.257,327.566 4.25,325.482 4.195,322.711C4.195,322.584 4.296,322.484 4.416,322.475C4.546,322.475 4.647,322.575 4.657,322.693C4.712,325.356 5.626,327.267 7.437,328.535C9.949,330.292 14.004,330.672 19.102,330.138C18.391,329.921 17.782,329.649 17.255,329.314C16.23,328.662 15.602,327.774 15.371,326.696C14.567,322.82 15.112,320.13 17.033,318.454C21.892,314.233 35.008,317.648 49.961,322.394C51.652,321.869 53.36,321.325 55.069,320.791C76.765,313.952 99.21,306.878 108.345,312.648C110.571,314.052 111.947,316.199 112.427,319.034C113.351,319.369 114.164,319.785 114.838,320.293C116.344,321.407 117.175,322.937 117.295,324.83C117.461,327.457 116.667,329.604 114.912,331.216C114.866,331.252 114.829,331.297 114.783,331.334C115.882,335.545 116.103,339.15 115.448,342.112C115.438,342.203 115.42,342.293 115.411,342.384C115.411,342.429 115.383,342.474 115.355,342.502C114.838,344.539 113.896,346.26 112.52,347.664C107.394,352.909 96.984,353.461 84.395,351.967C80.645,351.586 76.535,350.916 72.23,350.083C66.716,349.068 60.999,347.864 55.282,346.623C51.07,347.855 46.978,349.014 43.117,350.01C32.541,352.89 22.649,355.146 15.482,355.146L15.509,355.164Z" style="fill:rgb(212,175,55);fill-rule:nonzero;"/>
        </g>
        <g transform="matrix(0.960526,0,0,0.960526,-0.631579,0)">
            <path d="M16.322,340.119C12.23,340.119 8.998,340.717 6.975,342.166C5.571,343.181 4.804,344.549 4.647,346.351C4.398,349.15 5.118,351.188 6.855,352.573C10.78,355.716 19.435,355.073 30.02,352.818C24.404,353.633 19.989,353.552 17.421,352.039C16.156,351.296 15.371,350.219 15.094,348.824C14.595,346.387 15.038,344.485 16.405,343.19C18.299,341.378 21.883,340.79 26.556,340.971C22.769,340.436 19.315,340.119 16.322,340.119Z" style="fill:rgb(61,61,61);fill-rule:nonzero;"/>
        </g>
        <g transform="matrix(0.960526,0,0,0.960526,-0.631579,0)">
            <path d="M24.986,341.378C21.208,341.378 18.336,341.994 16.738,343.516C15.472,344.721 15.085,346.423 15.556,348.742C15.814,350.019 16.507,350.97 17.671,351.659C21.938,354.168 32.043,352.456 43.958,349.349C47.347,348.416 50.802,347.42 54.256,346.423C53.48,346.251 52.705,346.088 51.938,345.916C47.837,345.029 43.773,344.141 39.866,343.344C35.802,344.132 32.504,344.059 30.362,342.665C29.9,342.366 29.493,342.003 29.152,341.587C27.674,341.451 26.288,341.387 25.004,341.387L24.986,341.378Z" style="fill:rgb(61,61,61);fill-rule:nonzero;"/>
        </g>
        <g transform="matrix(0.960526,0,0,0.960526,-0.631579,0)">
            <path d="M93.871,352.175C101.999,352.338 108.567,351.079 112.196,347.365C113.545,345.98 114.469,344.313 114.967,342.339C115.346,339.748 114.801,337.864 113.277,336.587C111.799,335.337 109.462,334.748 106.479,334.64C104.078,335.029 101.353,335.21 98.397,335.237C93.253,336.007 87.258,337.438 80.894,339.168C90.057,337.139 97.381,336.433 100.974,338.634C102.249,339.413 103.025,340.563 103.283,342.031C103.837,345.273 103.191,347.782 101.353,349.476C99.69,351.016 97.113,351.849 93.871,352.166L93.871,352.175Z" style="fill:rgb(61,61,61);fill-rule:nonzero;"/>
        </g>
        <g transform="matrix(0.960526,0,0,0.960526,-0.631579,0)">
            <path d="M86.99,351.758C93.373,352.193 98.406,351.586 101.039,349.159C102.785,347.547 103.366,345.246 102.831,342.112C102.6,340.753 101.916,339.748 100.734,339.023C95.275,335.681 80.617,339.313 64.093,344.041C63.964,344.078 63.834,344.114 63.705,344.159C61.304,344.875 58.921,345.59 56.565,346.279C61.359,347.356 66.199,348.443 70.836,349.367C76.433,350.409 81.901,351.278 86.99,351.758Z" style="fill:rgb(61,61,61);fill-rule:nonzero;"/>
        </g>
        <g transform="matrix(0.960526,0,0,0.960526,-0.631579,0)">
            <path d="M41.408,343.009C45.879,343.878 50.663,344.947 55.522,346.043C55.937,345.925 56.353,345.798 56.759,345.681C59.179,344.983 61.581,344.286 63.945,343.607C75.177,340.255 86.575,336.868 95.793,335.219C87.738,335.056 78.262,333.924 68.887,332.783C67.714,333.272 66.541,333.761 65.368,334.25C56.593,337.909 48.105,341.451 41.399,343.009L41.408,343.009Z" style="fill:rgb(61,61,61);fill-rule:nonzero;"/>
        </g>
        <g transform="matrix(0.960526,0,0,0.960526,-0.631579,0)">
            <path d="M29.807,341.65C30.048,341.886 30.315,342.103 30.602,342.284C32.449,343.489 35.238,343.652 38.674,343.108C36.809,342.737 34.989,342.384 33.206,342.058C32.033,341.895 30.897,341.759 29.807,341.65Z" style="fill:rgb(61,61,61);fill-rule:nonzero;"/>
        </g>
        <g transform="matrix(0.960526,0,0,0.960526,-0.631579,0)">
            <path d="M33.41,341.641C35.589,341.949 37.908,342.348 40.318,342.8C47.089,341.378 55.983,337.674 65.201,333.834C66.125,333.444 67.058,333.064 67.982,332.674C50.774,330.573 34.518,328.589 29.549,332.882C28.533,333.761 28.034,334.848 28.034,336.225C28.034,338.217 28.413,339.775 29.198,340.916C30.574,341.134 31.978,341.378 33.419,341.632L33.41,341.641Z" style="fill:rgb(61,61,61);fill-rule:nonzero;"/>
        </g>
        <g transform="matrix(0.960526,0,0,0.960526,-0.631579,0)">
            <path d="M108.16,334.323C110.469,334.567 112.317,335.183 113.582,336.243C114.515,337.031 115.115,338.045 115.383,339.286C115.466,337.058 115.143,334.522 114.404,331.669C112.843,332.901 110.719,333.752 108.16,334.323Z" style="fill:rgb(61,61,61);fill-rule:nonzero;"/>
        </g>
        <g transform="matrix(0.960526,0,0,0.960526,-0.631579,0)">
            <path d="M74.927,330.319C84.062,332.964 92.569,334.875 99.155,334.694C100.549,334.504 101.879,334.359 103.126,334.277C105.269,333.852 107.107,333.1 108.557,331.94C110.229,330.609 111.328,328.798 111.864,326.479C111.042,325.555 110.044,324.812 108.862,324.242C101.491,320.709 88.579,324.848 74.918,330.319L74.927,330.319Z" style="fill:rgb(61,61,61);fill-rule:nonzero;"/>
        </g>
        <g transform="matrix(0.960526,0,0,0.960526,-0.631579,0)">
            <path d="M69.746,332.43C77.237,333.344 84.764,334.232 91.544,334.603C86.297,333.852 80.414,332.384 74.253,330.582C72.757,331.18 71.251,331.796 69.746,332.421L69.746,332.43Z" style="fill:rgb(61,61,61);fill-rule:nonzero;"/>
        </g>
        <g transform="matrix(0.960526,0,0,0.960526,-0.631579,0)">
            <path d="M105.537,334.196C105.833,334.196 106.128,334.196 106.405,334.205C109.749,333.661 112.455,332.701 114.284,331.18L114.284,331.162C113.822,329.468 113.148,328.046 112.233,326.895C111.642,329.169 110.515,330.971 108.862,332.285C107.828,333.109 106.608,333.743 105.223,334.196L105.537,334.196Z" style="fill:rgb(61,61,61);fill-rule:nonzero;"/>
        </g>
        <g transform="matrix(0.960526,0,0,0.960526,-0.631579,0)">
            <path d="M112.353,326.352C113.388,327.566 114.164,329.069 114.663,330.845C116.288,329.314 117.009,327.357 116.842,324.867C116.732,323.082 115.983,321.706 114.57,320.655C113.979,320.22 113.296,319.849 112.511,319.541C112.511,319.586 112.52,319.631 112.529,319.677C112.825,322.204 112.769,324.423 112.353,326.343L112.353,326.352Z" style="fill:rgb(61,61,61);fill-rule:nonzero;"/>
        </g>
        <g transform="matrix(0.960526,0,0,0.960526,-0.631579,0)">
            <path d="M21.827,330.238C29.355,331.125 42.951,328.453 57.628,325.356C55.041,324.513 52.474,323.68 49.961,322.883C39.57,326.135 29.706,329.051 21.818,330.247L21.827,330.238Z" style="fill:rgb(61,61,61);fill-rule:nonzero;"/>
        </g>
        <g transform="matrix(0.960526,0,0,0.960526,-0.631579,0)">
            <path d="M59.373,325.446C64.361,327.068 69.376,328.689 74.225,330.111C88.182,324.504 101.454,320.184 109.084,323.834C110.201,324.368 111.171,325.075 111.993,325.935C112.326,324.16 112.353,322.095 112.076,319.731C112.058,319.604 112.049,319.486 112.03,319.36C102.831,316.199 82.113,320.61 62.015,324.885C61.137,325.075 60.26,325.256 59.392,325.446L59.373,325.446Z" style="fill:rgb(61,61,61);fill-rule:nonzero;"/>
        </g>
        <g transform="matrix(0.960526,0,0,0.960526,-0.631579,0)">
            <path d="M23.97,316.987C21.079,316.987 18.807,317.53 17.338,318.798C15.546,320.356 15.057,322.91 15.823,326.615C16.027,327.584 16.572,328.354 17.504,328.942C18.243,329.413 19.195,329.767 20.331,330.002C28.237,328.988 38.407,326.008 49.204,322.638C39.256,319.495 30.186,316.977 23.97,316.977L23.97,316.987Z" style="fill:rgb(61,61,61);fill-rule:nonzero;"/>
        </g>
        <g transform="matrix(0.960526,0,0,0.960526,-0.631579,0)">
            <path d="M50.719,322.647C53.074,323.399 55.466,324.178 57.877,324.966C58.089,325.039 58.302,325.102 58.514,325.175C59.641,324.939 60.768,324.694 61.904,324.459C81.873,320.211 102.452,315.836 111.938,318.88C111.448,316.271 110.192,314.36 108.105,313.047C99.145,307.386 76.812,314.432 55.217,321.235C53.711,321.706 52.206,322.186 50.719,322.647Z" style="fill:rgb(61,61,61);fill-rule:nonzero;"/>
        </g>
        <g transform="matrix(0.960526,0,0,0.960526,-0.631579,0)">
            <path d="M4.426,322.937C4.306,322.937 4.204,322.847 4.195,322.729C3.936,319.532 4.592,316.878 6.144,314.831C5.054,313.354 4.352,311.489 4.056,309.224C3.336,303.835 4.463,299.832 7.418,297.323C16.322,289.751 40.318,296.326 63.53,302.685C63.807,302.757 64.075,302.839 64.352,302.911C83.12,295.167 101.612,288.175 109.906,293.247C112.751,294.986 114.312,298.084 114.57,302.476C114.81,306.733 113.591,310.085 110.94,312.449C102.369,320.075 79.786,316.651 57.951,313.345C53.536,312.675 49.093,312.005 44.752,311.425C29.715,317.258 16.008,321.28 8.979,317.331C7.991,316.778 7.141,316.072 6.439,315.211C4.998,317.159 4.416,319.622 4.666,322.702C4.675,322.829 4.583,322.937 4.453,322.946L4.435,322.946L4.426,322.937Z" style="fill:rgb(212,175,55);fill-rule:nonzero;"/>
        </g>
        <g transform="matrix(0.960526,0,0,0.960526,-0.631579,0)">
            <path d="M6.716,314.84C7.4,315.682 8.222,316.38 9.201,316.923C15.953,320.709 29.179,316.923 43.801,311.28C27.905,309.197 13.579,308.454 7.621,313.871C7.289,314.179 6.984,314.496 6.707,314.831L6.716,314.84Z" style="fill:rgb(61,61,61);fill-rule:nonzero;"/>
        </g>
        <g transform="matrix(0.960526,0,0,0.960526,-0.631579,0)">
            <path d="M45.62,311.063C49.657,311.615 53.813,312.249 58.016,312.883C79.74,316.18 102.212,319.586 110.626,312.105C112.427,310.501 113.527,308.491 113.942,306C113.462,307.177 112.704,308.155 111.67,308.925C104.493,314.269 85.088,309.061 64.379,303.391C62.782,304.052 61.174,304.714 59.586,305.384C54.921,307.322 50.22,309.279 45.629,311.072L45.62,311.063Z" style="fill:rgb(61,61,61);fill-rule:nonzero;"/>
        </g>
        <g transform="matrix(0.960526,0,0,0.960526,-0.631579,0)">
            <path d="M20.035,294.37C14.743,294.37 10.476,295.321 7.714,297.667C4.841,300.103 3.798,303.871 4.509,309.17C4.795,311.326 5.432,313.083 6.43,314.469C6.698,314.142 6.993,313.835 7.317,313.545C13.561,307.866 27.979,308.681 44.697,310.936C49.518,309.061 54.478,306.996 59.401,304.958C60.823,304.369 62.246,303.781 63.668,303.192C63.585,303.165 63.493,303.147 63.41,303.12C47.625,298.79 31.47,294.37 20.044,294.37L20.035,294.37Z" style="fill:rgb(61,61,61);fill-rule:nonzero;"/>
        </g>
        <g transform="matrix(0.960526,0,0,0.960526,-0.631579,0)">
            <path d="M65.063,303.11C85.448,308.69 104.456,313.726 111.393,308.572C113.222,307.214 114.108,305.23 114.108,302.495C113.859,298.21 112.409,295.312 109.666,293.636C101.639,288.727 83.545,295.502 65.072,303.11L65.063,303.11Z" style="fill:rgb(61,61,61);fill-rule:nonzero;"/>
        </g>
        <g transform="matrix(0.960526,0,0,0.960526,-0.631579,0)">
            <path d="M19.426,311.353C17.311,311.353 15.62,310.981 14.503,310.121C13.376,309.26 12.868,307.92 12.997,306.154C13.053,305.348 13.468,304.623 14.235,303.998C15.814,302.703 18.474,302.168 19.278,302.232C25.697,301.344 35.026,302.993 44.401,304.859C44.854,304.714 45.306,304.569 45.768,304.424C59.29,300.085 72.055,295.991 76.904,298.844C77.948,299.46 78.585,300.384 78.807,301.598C79.241,303.998 78.788,305.855 77.477,307.114C73.265,311.126 60.786,308.617 47.578,305.964C46.535,305.755 45.491,305.547 44.438,305.339C34.629,308.482 25.346,311.362 19.435,311.362L19.426,311.353Z" style="fill:rgb(212,175,55);fill-rule:nonzero;"/>
        </g>
        <g transform="matrix(0.960526,0,0,0.960526,-0.631579,0)">
            <path d="M19.13,302.685C18.345,302.685 15.953,303.174 14.53,304.351C13.865,304.895 13.505,305.52 13.459,306.19C13.339,307.82 13.773,308.989 14.789,309.768C18.77,312.82 31.091,309.116 43.514,305.148C34.435,303.355 25.485,301.824 19.315,302.685L19.13,302.685Z" style="fill:rgb(61,61,61);fill-rule:nonzero;"/>
        </g>
        <g transform="matrix(0.960526,0,0,0.960526,-0.631579,0)">
            <path d="M45.315,305.049C46.1,305.203 46.876,305.366 47.661,305.52C60.749,308.155 73.108,310.646 77.144,306.797C78.363,305.637 78.751,303.971 78.345,301.688C78.151,300.592 77.597,299.795 76.664,299.243C71.999,296.498 58.736,300.746 45.907,304.859C45.713,304.922 45.509,304.985 45.315,305.049Z" style="fill:rgb(61,61,61);fill-rule:nonzero;"/>
        </g>
        <g transform="matrix(0.979041,0,0,0.979041,2.521835,4.108383)">
            <path d="M46.48,276.881L45.56,276.881L45.56,271.881L47.24,271.881C47.93,271.881 48.3,271.991 48.58,272.281C48.84,272.561 48.95,272.921 48.95,273.471C48.95,274.071 48.82,274.461 48.51,274.731C48.24,274.981 47.87,275.071 47.24,275.071L46.48,275.071L46.48,276.881ZM47.25,274.331C47.82,274.331 48.06,274.081 48.06,273.471C48.06,272.861 47.83,272.621 47.25,272.621L46.47,272.621L46.47,274.341L47.25,274.341L47.25,274.331Z" style="fill:rgb(212,175,55);fill-rule:nonzero;"/>
            <path d="M50.54,273.291L50.54,275.241C50.54,275.941 50.7,276.211 51.11,276.211C51.56,276.211 51.72,275.921 51.72,275.131L51.72,273.281L52.59,273.281L52.59,276.871L51.99,276.871L51.89,276.531C51.69,276.821 51.43,276.941 50.95,276.941C50.34,276.941 49.95,276.711 49.79,276.251C49.72,276.051 49.69,275.771 49.69,275.331L49.69,273.281L50.56,273.281L50.54,273.291Z" style="fill:rgb(212,175,55);fill-rule:nonzero;"/>
            <path d="M54.48,271.881L54.48,275.471C54.48,276.021 54.62,276.181 55.1,276.181L55.23,276.181L55.23,276.891L55.06,276.891C53.88,276.891 53.61,276.611 53.61,275.391L53.61,271.891L54.48,271.891L54.48,271.881Z" style="fill:rgb(212,175,55);fill-rule:nonzero;"/>
            <path d="M56.04,275.901C56.25,276.191 56.43,276.271 56.85,276.271C57.33,276.271 57.56,276.121 57.56,275.811C57.56,275.661 57.49,275.541 57.36,275.491C57.287,275.458 57.097,275.421 56.79,275.381C55.9,275.271 55.59,275.001 55.59,274.341C55.59,273.601 56.05,273.201 56.89,273.201C57.56,273.201 58,273.411 58.3,273.891L57.66,274.261C57.47,273.981 57.3,273.891 56.96,273.891C56.62,273.891 56.43,274.041 56.43,274.301C56.43,274.561 56.56,274.641 57.05,274.701C57.61,274.761 57.86,274.831 58.07,274.971C58.29,275.121 58.4,275.421 58.4,275.821C58.4,276.591 57.92,276.951 56.89,276.951C56.14,276.951 55.65,276.731 55.41,276.261L56.05,275.891L56.04,275.901Z" style="fill:rgb(212,175,55);fill-rule:nonzero;"/>
            <path d="M59.96,275.411C59.96,275.981 60.23,276.281 60.74,276.281C61.08,276.281 61.29,276.171 61.48,275.911L62.12,276.281C61.82,276.761 61.4,276.961 60.64,276.961C59.55,276.961 59.09,276.441 59.09,275.241L59.09,274.991C59.09,273.741 59.54,273.221 60.63,273.221C61.72,273.221 62.17,273.741 62.17,274.991L62.17,275.311L59.96,275.311L59.96,275.421L59.96,275.411ZM61.34,274.701L61.34,274.621C61.34,274.131 61.09,273.861 60.64,273.861C60.19,273.861 59.95,274.131 59.95,274.621L59.95,274.701L61.34,274.701Z" style="fill:rgb(212,175,55);fill-rule:nonzero;"/>
            <path d="M63.41,275.901C63.62,276.191 63.8,276.271 64.22,276.271C64.7,276.271 64.93,276.121 64.93,275.811C64.93,275.661 64.86,275.541 64.73,275.491C64.657,275.458 64.467,275.421 64.16,275.381C63.27,275.271 62.96,275.001 62.96,274.341C62.96,273.601 63.42,273.201 64.26,273.201C64.93,273.201 65.37,273.411 65.67,273.891L65.03,274.261C64.84,273.981 64.67,273.891 64.33,273.891C63.99,273.891 63.8,274.041 63.8,274.301C63.8,274.561 63.93,274.641 64.42,274.701C64.98,274.761 65.23,274.831 65.44,274.971C65.66,275.121 65.77,275.421 65.77,275.821C65.77,276.591 65.29,276.951 64.26,276.951C63.51,276.951 63.02,276.731 62.78,276.261L63.42,275.891L63.41,275.901Z" style="fill:rgb(212,175,55);fill-rule:nonzero;"/>
        </g>
        <g transform="matrix(0.979041,0,0,0.979041,2.521835,4.108383)">
            <path d="M55.18,228.521C55.13,229.441 54.55,229.901 53.43,229.901C52.74,229.901 52.28,229.701 51.98,229.281C51.75,228.961 51.66,228.571 51.66,227.861L51.66,226.801C51.66,226.021 51.77,225.621 52.05,225.291C52.36,224.931 52.79,224.761 53.43,224.761C54.51,224.761 55.06,225.221 55.11,226.181L54.27,226.241C54.21,225.741 53.94,225.501 53.44,225.501C52.8,225.501 52.57,225.861 52.57,226.861L52.57,227.801C52.57,228.811 52.79,229.161 53.45,229.161C53.96,229.161 54.25,228.921 54.32,228.421L55.17,228.521L55.18,228.521Z" style="fill:rgb(212,175,55);fill-rule:nonzero;"/>
            <path d="M55.65,224.831L56.57,224.831L57.73,228.591L58.89,224.831L59.81,224.831L58.13,229.831L57.34,229.831L55.66,224.831L55.65,224.831Z" style="fill:rgb(212,175,55);fill-rule:nonzero;"/>
        </g>
        <g transform="matrix(0.979041,0,0,0.979041,-27.789057,-338.38089)">
            <path d="M50,353.551L50.95,357.911L50.97,357.911L51.93,353.551L53.91,353.551L53.91,359.731L52.68,359.731L52.68,354.801L52.66,354.801L51.48,359.731L50.44,359.731L49.26,354.801L49.24,354.801L49.24,359.731L48.01,359.731L48.01,353.551L50,353.551Z" style="fill:rgb(192,192,192);fill-rule:nonzero;"/>
            <path d="M57.37,359.181C57.23,359.411 57.06,359.581 56.84,359.671C56.62,359.771 56.38,359.821 56.1,359.821C55.69,359.821 55.38,359.721 55.16,359.521C54.94,359.321 54.83,358.991 54.83,358.521L54.83,355.071L56.11,355.071L56.11,358.281C56.11,358.521 56.15,358.691 56.24,358.791C56.33,358.891 56.47,358.931 56.66,358.931C57.11,358.931 57.34,358.671 57.34,358.161L57.34,355.071L58.62,355.071L58.62,359.731L57.39,359.731L57.39,359.181L57.37,359.181Z" style="fill:rgb(192,192,192);fill-rule:nonzero;"/>
            <path d="M60.41,358.361C60.41,358.561 60.47,358.721 60.58,358.851C60.69,358.971 60.86,359.041 61.08,359.041C61.28,359.041 61.44,358.991 61.55,358.901C61.66,358.811 61.73,358.671 61.73,358.481C61.73,358.331 61.68,358.221 61.59,358.141C61.5,358.061 61.39,358.001 61.26,357.951L60.36,357.651C60.01,357.531 59.74,357.371 59.56,357.161C59.38,356.951 59.29,356.681 59.29,356.351C59.29,356.161 59.32,355.981 59.39,355.811C59.46,355.641 59.57,355.491 59.72,355.361C59.87,355.231 60.06,355.131 60.29,355.061C60.52,354.991 60.8,354.951 61.13,354.951C61.71,354.951 62.14,355.071 62.42,355.301C62.7,355.531 62.84,355.861 62.84,356.281L62.84,356.471L61.69,356.471C61.69,356.231 61.65,356.051 61.56,355.941C61.48,355.831 61.33,355.771 61.12,355.771C60.96,355.771 60.82,355.811 60.7,355.901C60.58,355.981 60.52,356.111 60.52,356.281C60.52,356.401 60.56,356.501 60.64,356.591C60.72,356.681 60.86,356.761 61.08,356.821L61.85,357.061C62.25,357.191 62.54,357.351 62.7,357.561C62.87,357.771 62.95,358.041 62.95,358.401C62.95,358.651 62.9,358.861 62.81,359.051C62.72,359.231 62.59,359.381 62.42,359.501C62.26,359.621 62.06,359.711 61.84,359.761C61.61,359.811 61.36,359.841 61.09,359.841C60.73,359.841 60.43,359.811 60.19,359.741C59.95,359.681 59.76,359.581 59.62,359.451C59.48,359.321 59.38,359.171 59.33,358.991C59.27,358.811 59.25,358.601 59.25,358.381L59.25,358.221L60.4,358.221L60.4,358.381L60.41,358.361Z" style="fill:rgb(192,192,192);fill-rule:nonzero;"/>
            <path d="M64.92,353.481L64.92,354.501L63.64,354.501L63.64,353.481L64.92,353.481ZM64.92,355.071L64.92,359.731L63.64,359.731L63.64,355.071L64.92,355.071Z" style="fill:rgb(192,192,192);fill-rule:nonzero;"/>
            <path d="M68.21,356.411C68.19,356.301 68.17,356.201 68.13,356.111C68.09,356.021 68.03,355.951 67.96,355.891C67.89,355.841 67.79,355.811 67.66,355.811C67.5,355.811 67.38,355.841 67.28,355.911C67.18,355.981 67.11,356.071 67.06,356.201C67.01,356.331 66.98,356.491 66.96,356.691C66.94,356.891 66.93,357.121 66.93,357.401C66.93,357.691 66.93,357.941 66.96,358.141C66.98,358.351 67.01,358.511 67.06,358.651C67.11,358.781 67.18,358.881 67.27,358.941C67.36,359.001 67.48,359.031 67.62,359.031C67.84,359.031 68,358.941 68.09,358.771C68.19,358.601 68.24,358.321 68.24,357.941L69.47,357.941C69.47,358.551 69.32,359.021 69.03,359.341C68.74,359.661 68.25,359.821 67.57,359.821C67.25,359.821 66.97,359.781 66.73,359.711C66.49,359.641 66.29,359.511 66.14,359.321C65.98,359.131 65.86,358.881 65.78,358.571C65.7,358.261 65.66,357.861 65.66,357.401C65.66,356.941 65.71,356.521 65.81,356.211C65.91,355.901 66.05,355.641 66.23,355.461C66.41,355.281 66.62,355.141 66.87,355.071C67.12,355.001 67.39,354.961 67.69,354.961C68.28,354.961 68.73,355.121 69.03,355.441C69.33,355.761 69.48,356.201 69.48,356.761L68.25,356.761C68.25,356.641 68.25,356.531 68.23,356.421L68.21,356.411Z" style="fill:rgb(192,192,192);fill-rule:nonzero;"/>
            <path d="M75.51,354.571L74.06,354.571L74.06,359.731L72.72,359.731L72.72,354.571L71.27,354.571L71.27,353.551L75.51,353.551L75.51,354.571Z" style="fill:rgb(192,192,192);fill-rule:nonzero;"/>
            <path d="M77.34,353.541L77.34,355.551L77.36,355.551C77.61,355.151 78.01,354.951 78.58,354.951C78.99,354.951 79.3,355.051 79.52,355.261C79.74,355.471 79.85,355.811 79.85,356.271L79.85,359.721L78.57,359.721L78.57,356.511C78.57,356.271 78.53,356.101 78.44,356.001C78.35,355.901 78.21,355.861 78.02,355.861C77.57,355.861 77.34,356.121 77.34,356.631L77.34,359.721L76.06,359.721L76.06,353.541L77.34,353.541Z" style="fill:rgb(192,192,192);fill-rule:nonzero;"/>
            <path d="M82.03,353.481L82.03,354.501L80.75,354.501L80.75,353.481L82.03,353.481ZM82.03,355.071L82.03,359.731L80.75,359.731L80.75,355.071L82.03,355.071Z" style="fill:rgb(192,192,192);fill-rule:nonzero;"/>
            <path d="M84.15,355.061L84.15,355.621L84.17,355.621C84.31,355.391 84.48,355.221 84.7,355.111C84.92,355.001 85.16,354.951 85.44,354.951C85.85,354.951 86.16,355.051 86.38,355.261C86.6,355.471 86.71,355.811 86.71,356.271L86.71,359.721L85.43,359.721L85.43,356.511C85.43,356.271 85.39,356.101 85.3,356.001C85.21,355.901 85.07,355.861 84.88,355.861C84.43,355.861 84.2,356.121 84.2,356.631L84.2,359.721L82.92,359.721L82.92,355.061L84.15,355.061Z" style="fill:rgb(192,192,192);fill-rule:nonzero;"/>
            <path d="M91.32,359.491C91.32,360.091 91.16,360.541 90.84,360.841C90.52,361.141 89.99,361.291 89.24,361.291C88.7,361.291 88.28,361.181 87.98,360.971C87.69,360.751 87.54,360.451 87.54,360.051L88.77,360.051C88.77,360.201 88.83,360.321 88.96,360.401C89.02,360.441 89.09,360.471 89.16,360.501C89.23,360.531 89.31,360.531 89.39,360.531C89.65,360.531 89.83,360.451 89.94,360.301C90.05,360.151 90.1,359.951 90.1,359.721L90.1,359.111L90.08,359.111C89.95,359.281 89.79,359.421 89.6,359.531C89.41,359.631 89.21,359.691 89.01,359.691C88.5,359.691 88.12,359.511 87.86,359.151C87.6,358.791 87.47,358.181 87.47,357.341C87.47,357.071 87.49,356.791 87.52,356.511C87.55,356.231 87.62,355.971 87.73,355.741C87.84,355.511 88,355.331 88.2,355.181C88.41,355.041 88.68,354.961 89.03,354.961C89.21,354.961 89.4,355.011 89.59,355.101C89.78,355.191 89.94,355.361 90.06,355.601L90.08,355.601L90.08,355.081L91.31,355.081L91.31,359.501L91.32,359.491ZM88.78,358.011C88.8,358.151 88.83,358.281 88.87,358.401C88.92,358.511 88.98,358.601 89.07,358.671C89.15,358.741 89.26,358.771 89.4,358.771C89.54,358.771 89.65,358.741 89.74,358.671C89.83,358.601 89.9,358.511 89.95,358.401C90,358.281 90.04,358.141 90.06,357.981C90.08,357.821 90.09,357.641 90.09,357.441C90.09,356.871 90.04,356.471 89.95,356.241C89.85,356.001 89.68,355.891 89.43,355.891C89.29,355.891 89.17,355.921 89.09,355.981C89,356.041 88.93,356.131 88.89,356.261C88.84,356.391 88.81,356.561 88.79,356.781C88.77,357.001 88.77,357.261 88.77,357.571C88.77,357.731 88.77,357.881 88.79,358.031L88.78,358.011Z" style="fill:rgb(192,192,192);fill-rule:nonzero;"/>
            <path d="M95.94,353.551L96.89,357.911L96.91,357.911L97.87,353.551L99.85,353.551L99.85,359.731L98.62,359.731L98.62,354.801L98.6,354.801L97.42,359.731L96.38,359.731L95.2,354.801L95.18,354.801L95.18,359.731L93.95,359.731L93.95,353.551L95.94,353.551Z" style="fill:rgb(192,192,192);fill-rule:nonzero;"/>
            <path d="M100.7,356.341C100.77,356.031 100.88,355.781 101.03,355.571C101.18,355.361 101.39,355.211 101.64,355.101C101.89,354.991 102.2,354.941 102.56,354.941C102.94,354.941 103.26,354.981 103.52,355.081C103.78,355.181 103.98,355.341 104.12,355.541C104.27,355.751 104.37,356.001 104.44,356.311C104.5,356.621 104.53,356.971 104.53,357.381C104.53,357.791 104.5,358.131 104.43,358.441C104.36,358.751 104.25,359.001 104.1,359.211C103.95,359.421 103.74,359.571 103.49,359.661C103.24,359.761 102.93,359.811 102.57,359.811C102.19,359.811 101.87,359.771 101.61,359.681C101.36,359.581 101.15,359.431 101.01,359.231C100.86,359.031 100.76,358.771 100.69,358.461C100.63,358.151 100.6,357.791 100.6,357.391C100.6,356.991 100.63,356.641 100.7,356.331L100.7,356.341ZM101.9,358.061C101.91,358.261 101.94,358.441 101.99,358.581C102.04,358.721 102.11,358.841 102.2,358.921C102.29,359.001 102.42,359.041 102.57,359.041C102.83,359.041 103.01,358.911 103.11,358.661C103.21,358.411 103.26,357.991 103.26,357.401C103.26,356.811 103.21,356.401 103.11,356.141C103.01,355.881 102.83,355.761 102.57,355.761C102.42,355.761 102.29,355.801 102.2,355.881C102.11,355.961 102.04,356.071 101.99,356.221C101.94,356.361 101.91,356.541 101.9,356.741C101.89,356.941 101.88,357.161 101.88,357.401C101.88,357.641 101.88,357.861 101.9,358.061Z" style="fill:rgb(192,192,192);fill-rule:nonzero;"/>
            <path d="M107.77,359.231C107.63,359.451 107.47,359.601 107.29,359.691C107.11,359.781 106.89,359.821 106.63,359.821C106.1,359.821 105.72,359.631 105.47,359.261C105.22,358.881 105.1,358.261 105.1,357.401C105.1,356.541 105.22,355.911 105.47,355.531C105.72,355.151 106.1,354.951 106.63,354.951C106.87,354.951 107.08,355.001 107.25,355.091C107.42,355.181 107.57,355.321 107.71,355.511L107.73,355.511L107.73,353.551L109.01,353.551L109.01,359.731L107.78,359.731L107.78,359.241L107.76,359.241L107.77,359.231ZM106.51,358.551C106.59,358.811 106.78,358.941 107.05,358.941C107.32,358.941 107.52,358.811 107.6,358.551C107.68,358.291 107.72,357.911 107.72,357.401C107.72,356.891 107.68,356.511 107.6,356.251C107.52,355.991 107.33,355.861 107.05,355.861C106.77,355.861 106.59,355.991 106.51,356.251C106.43,356.511 106.39,356.891 106.39,357.401C106.39,357.911 106.43,358.291 106.51,358.551Z" style="fill:rgb(192,192,192);fill-rule:nonzero;"/>
            <path d="M112.42,359.181C112.28,359.411 112.11,359.581 111.89,359.671C111.67,359.771 111.43,359.821 111.15,359.821C110.74,359.821 110.43,359.721 110.21,359.521C109.99,359.321 109.88,358.991 109.88,358.521L109.88,355.071L111.16,355.071L111.16,358.281C111.16,358.521 111.2,358.691 111.29,358.791C111.38,358.891 111.52,358.931 111.71,358.931C112.16,358.931 112.39,358.671 112.39,358.161L112.39,355.071L113.67,355.071L113.67,359.731L112.44,359.731L112.44,359.181L112.42,359.181Z" style="fill:rgb(192,192,192);fill-rule:nonzero;"/>
            <rect x="114.56" y="353.551" width="1.28" height="6.18" style="fill:rgb(192,192,192);"/>
            <path d="M116.74,356.391C116.74,356.121 116.79,355.891 116.88,355.711C116.97,355.531 117.1,355.381 117.26,355.271C117.42,355.161 117.6,355.081 117.82,355.031C118.03,354.981 118.26,354.961 118.5,354.961C118.88,354.961 119.19,354.991 119.43,355.061C119.67,355.131 119.85,355.231 119.98,355.351C120.11,355.481 120.2,355.631 120.24,355.801C120.29,355.981 120.31,356.171 120.31,356.381L120.31,358.831C120.31,359.051 120.32,359.221 120.34,359.341C120.36,359.461 120.4,359.591 120.47,359.731L119.24,359.731C119.2,359.661 119.16,359.581 119.14,359.491C119.12,359.411 119.1,359.321 119.08,359.241L119.06,359.241C118.91,359.481 118.74,359.641 118.54,359.711C118.34,359.781 118.09,359.821 117.78,359.821C117.56,359.821 117.37,359.781 117.21,359.711C117.05,359.641 116.93,359.541 116.84,359.411C116.75,359.281 116.68,359.141 116.64,358.981C116.6,358.821 116.58,358.661 116.58,358.511C116.58,358.291 116.6,358.101 116.65,357.941C116.7,357.781 116.78,357.651 116.88,357.531C116.98,357.421 117.11,357.321 117.27,357.251C117.43,357.181 117.62,357.111 117.84,357.051L118.56,356.871C118.75,356.821 118.89,356.761 118.96,356.681C119.03,356.601 119.07,356.481 119.07,356.331C119.07,356.151 119.03,356.011 118.94,355.911C118.85,355.811 118.7,355.761 118.48,355.761C118.28,355.761 118.13,355.821 118.03,355.921C117.93,356.031 117.88,356.181 117.88,356.361L117.88,356.491L116.73,356.491L116.73,356.381L116.74,356.391ZM118.8,357.551C118.7,357.591 118.61,357.611 118.53,357.631C118.27,357.681 118.08,357.771 117.97,357.891C117.86,358.011 117.8,358.181 117.8,358.381C117.8,358.561 117.84,358.711 117.91,358.841C117.98,358.971 118.11,359.031 118.28,359.031C118.37,359.031 118.46,359.021 118.55,358.991C118.64,358.961 118.73,358.921 118.81,358.861C118.89,358.801 118.95,358.731 119,358.631C119.05,358.541 119.07,358.431 119.07,358.301L119.07,357.381C118.98,357.441 118.89,357.491 118.79,357.531L118.8,357.551Z" style="fill:rgb(192,192,192);fill-rule:nonzero;"/>
            <path d="M122.44,355.071L122.44,355.691L122.46,355.691C122.59,355.461 122.75,355.281 122.93,355.151C123.12,355.011 123.34,354.951 123.61,354.951L123.73,354.951C123.77,354.951 123.81,354.951 123.85,354.961L123.85,356.101C123.78,356.101 123.72,356.101 123.65,356.091C123.58,356.081 123.52,356.091 123.45,356.091C123.34,356.091 123.23,356.101 123.12,356.131C123.01,356.161 122.91,356.211 122.81,356.271C122.71,356.331 122.64,356.421 122.59,356.531C122.54,356.641 122.51,356.771 122.51,356.921L122.51,359.721L121.23,359.721L121.23,355.061L122.46,355.061L122.44,355.071Z" style="fill:rgb(192,192,192);fill-rule:nonzero;"/>
        </g>
        <g transform="matrix(0.940395,0,0,0.940395,0.022703,6.929568)">
            <rect x="44" y="341" width="45" height="5" style="fill:rgb(30,30,30);"/>
        </g>
    </g>
    <g id="uuid-cdf9562d-d354-4d53-9314-6f7c05ad3b50" transform="matrix(1.041096,0,0,1.041096,0.657534,0)">
        <g transform="matrix(0.979041,0,0,0.979041,2.521835,4.108383)">
            <path d="M1.25,167.871L23.57,167.871" style="fill:none;fill-rule:nonzero;stroke:white;stroke-width:3px;stroke-miterlimit:4;"/>
        </g>
        <g transform="matrix(0.979041,0,0,0.979041,2.521835,4.108383)">
            <path d="M30.04,247.041L52.36,247.041" style="fill:none;fill-rule:nonzero;stroke:white;stroke-width:3px;stroke-miterlimit:4;"/>
        </g>
        <g transform="matrix(0.979041,0,0,0.979041,2.521835,4.108383)">
            <path d="M1.25,247.131L23.57,247.131" style="fill:none;fill-rule:nonzero;stroke:white;stroke-width:3px;stroke-miterlimit:4;"/>
        </g>
        <g transform="matrix(0.979041,0,0,0.979041,2.521835,4.108383)">
            <path d="M87.69,247.001L110.01,247.001" style="fill:none;fill-rule:nonzero;stroke:white;stroke-width:3px;stroke-miterlimit:4;"/>
        </g>
        <g transform="matrix(0.979041,0,0,0.979041,2.521835,4.108383)">
            <path d="M58.93,247.051L81.25,247.051" style="fill:none;fill-rule:nonzero;stroke:white;stroke-width:3px;stroke-miterlimit:4;"/>
        </g>
        <g transform="matrix(0.979041,0,0,0.979041,2.521835,4.108383)">
            <path d="M23.21,167.871C23.21,161.911 18.38,157.071 12.41,157.071C6.44,157.071 1.61,161.901 1.61,167.871C1.61,173.841 6.44,178.671 12.41,178.671C18.38,178.671 23.21,173.831 23.21,167.871Z" style="fill:rgb(176,172,176);fill-rule:nonzero;stroke:rgb(149,149,149);stroke-width:1px;stroke-miterlimit:4;"/>
        </g>
        <g transform="matrix(0.979041,0,0,0.979041,2.521835,4.108383)">
            <path d="M23.57,167.871C23.57,161.711 18.57,157.071 12.41,157.071C6.25,157.071 1.25,161.711 1.25,167.871C1.25,174.031 6.25,179.031 12.41,179.031C18.57,179.031 23.57,174.031 23.57,167.871Z" style="fill:none;fill-rule:nonzero;stroke:rgb(193,193,193);stroke-width:1.5px;stroke-miterlimit:4;stroke-dasharray:1.5,1.5;"/>
        </g>
        <g transform="matrix(0.979041,0,0,0.979041,2.521835,4.108383)">
            <path d="M1.36,166.861L23.57,166.861" style="fill:none;fill-rule:nonzero;stroke:rgb(115,115,115);stroke-width:1px;stroke-miterlimit:4;"/>
        </g>
        <g transform="matrix(0.979041,0,0,0.979041,2.521835,4.108383)">
            <path d="M1.36,170.021L23.36,170.021" style="fill:none;fill-rule:nonzero;stroke:rgb(124,124,124);stroke-width:1px;stroke-miterlimit:4;"/>
        </g>
        <g transform="matrix(0.979041,0,0,0.979041,2.521835,4.108383)">
            <circle cx="12.41" cy="167.871" r="7.92" style="fill:rgb(233,233,234);stroke:rgb(146,146,146);stroke-width:1px;stroke-miterlimit:4;"/>
        </g>
        <g transform="matrix(0.979041,0,0,0.979041,2.521835,4.108383)">
            <path d="M18.53,167.871C18.53,164.491 15.79,161.751 12.41,161.751C9.03,161.751 6.29,164.491 6.29,167.871C6.29,171.251 9.03,173.991 12.41,173.991C15.79,173.991 18.53,171.251 18.53,167.871Z" style="fill:rgb(137,137,137);fill-rule:nonzero;stroke:rgb(179,179,179);stroke-width:1px;stroke-miterlimit:4;"/>
        </g>
        <g transform="matrix(0.979041,0,0,0.979041,2.521835,4.108383)">
            <path d="M52.01,167.871C52.01,161.911 47.18,157.071 41.21,157.071C35.24,157.071 30.41,161.901 30.41,167.871C30.41,173.841 35.24,178.671 41.21,178.671C47.18,178.671 52.01,173.831 52.01,167.871Z" style="fill:rgb(176,172,176);fill-rule:nonzero;stroke:rgb(149,149,149);stroke-width:1px;stroke-miterlimit:4;"/>
        </g>
        <g transform="matrix(0.979041,0,0,0.979041,2.521835,4.108383)">
            <path d="M52.37,167.871C52.37,161.711 47.37,157.071 41.21,157.071C35.05,157.071 30.05,161.711 30.05,167.871C30.05,174.031 35.05,179.031 41.21,179.031C47.37,179.031 52.37,174.031 52.37,167.871Z" style="fill:none;fill-rule:nonzero;stroke:rgb(193,193,193);stroke-width:1.5px;stroke-miterlimit:4;stroke-dasharray:1.5,1.5;"/>
        </g>
        <g transform="matrix(0.979041,0,0,0.979041,2.521835,4.108383)">
            <path d="M30.16,166.861L52.37,166.861" style="fill:none;fill-rule:nonzero;stroke:rgb(115,115,115);stroke-width:1px;stroke-miterlimit:4;"/>
        </g>
        <g transform="matrix(0.979041,0,0,0.979041,2.521835,4.108383)">
            <path d="M30.16,170.021L52.16,170.021" style="fill:none;fill-rule:nonzero;stroke:rgb(124,124,124);stroke-width:1px;stroke-miterlimit:4;"/>
        </g>
        <g transform="matrix(0.979041,0,0,0.979041,2.521835,4.108383)">
            <circle cx="41.21" cy="167.871" r="7.92" style="fill:rgb(233,233,234);stroke:rgb(146,146,146);stroke-width:1px;stroke-miterlimit:4;"/>
        </g>
        <g transform="matrix(0.979041,0,0,0.979041,2.521835,4.108383)">
            <path d="M47.33,167.871C47.33,164.491 44.59,161.751 41.21,161.751C37.83,161.751 35.09,164.491 35.09,167.871C35.09,171.251 37.83,173.991 41.21,173.991C44.59,173.991 47.33,171.251 47.33,167.871Z" style="fill:rgb(137,137,137);fill-rule:nonzero;stroke:rgb(179,179,179);stroke-width:1px;stroke-miterlimit:4;"/>
        </g>
        <g transform="matrix(0.979041,0,0,0.979041,2.521835,4.108383)">
            <path d="M80.81,167.871C80.81,161.911 75.98,157.071 70.01,157.071C64.04,157.071 59.21,161.901 59.21,167.871C59.21,173.841 64.04,178.671 70.01,178.671C75.98,178.671 80.81,173.831 80.81,167.871Z" style="fill:rgb(176,172,176);fill-rule:nonzero;stroke:rgb(149,149,149);stroke-width:1px;stroke-miterlimit:4;"/>
        </g>
        <g transform="matrix(0.979041,0,0,0.979041,2.521835,4.108383)">
            <path d="M81.17,167.871C81.17,161.711 76.17,157.071 70.01,157.071C63.85,157.071 58.85,161.711 58.85,167.871C58.85,174.031 63.85,179.031 70.01,179.031C76.17,179.031 81.17,174.031 81.17,167.871Z" style="fill:none;fill-rule:nonzero;stroke:rgb(193,193,193);stroke-width:1.5px;stroke-miterlimit:4;stroke-dasharray:1.5,1.5;"/>
        </g>
        <g transform="matrix(0.979041,0,0,0.979041,2.521835,4.108383)">
            <path d="M58.96,166.861L81.17,166.861" style="fill:none;fill-rule:nonzero;stroke:rgb(115,115,115);stroke-width:1px;stroke-miterlimit:4;"/>
        </g>
        <g transform="matrix(0.979041,0,0,0.979041,2.521835,4.108383)">
            <path d="M58.96,170.021L80.96,170.021" style="fill:none;fill-rule:nonzero;stroke:rgb(124,124,124);stroke-width:1px;stroke-miterlimit:4;"/>
        </g>
        <g transform="matrix(0.979041,0,0,0.979041,2.521835,4.108383)">
            <circle cx="70.01" cy="167.871" r="7.92" style="fill:rgb(233,233,234);stroke:rgb(146,146,146);stroke-width:1px;stroke-miterlimit:4;"/>
        </g>
        <g transform="matrix(0.979041,0,0,0.979041,2.521835,4.108383)">
            <path d="M76.13,167.871C76.13,164.491 73.39,161.751 70.01,161.751C66.63,161.751 63.89,164.491 63.89,167.871C63.89,171.251 66.63,173.991 70.01,173.991C73.39,173.991 76.13,171.251 76.13,167.871Z" style="fill:rgb(137,137,137);fill-rule:nonzero;stroke:rgb(179,179,179);stroke-width:1px;stroke-miterlimit:4;"/>
        </g>
        <g transform="matrix(0.979041,0,0,0.979041,2.521835,4.108383)">
            <path d="M109.61,167.871C109.61,161.911 104.78,157.071 98.81,157.071C92.84,157.071 88.01,161.901 88.01,167.871C88.01,173.841 92.84,178.671 98.81,178.671C104.78,178.671 109.61,173.831 109.61,167.871Z" style="fill:rgb(176,172,176);fill-rule:nonzero;stroke:rgb(149,149,149);stroke-width:1px;stroke-miterlimit:4;"/>
        </g>
        <g transform="matrix(0.979041,0,0,0.979041,2.521835,4.108383)">
            <path d="M109.97,167.871C109.97,161.711 104.97,157.071 98.81,157.071C92.65,157.071 87.65,161.711 87.65,167.871C87.65,174.031 92.65,179.031 98.81,179.031C104.97,179.031 109.97,174.031 109.97,167.871Z" style="fill:none;fill-rule:nonzero;stroke:rgb(193,193,193);stroke-width:1.5px;stroke-miterlimit:4;stroke-dasharray:1.5,1.5;"/>
        </g>
        <g transform="matrix(0.979041,0,0,0.979041,2.521835,4.108383)">
            <path d="M87.76,166.861L109.97,166.861" style="fill:none;fill-rule:nonzero;stroke:rgb(115,115,115);stroke-width:1px;stroke-miterlimit:4;"/>
        </g>
        <g transform="matrix(0.979041,0,0,0.979041,2.521835,4.108383)">
            <path d="M87.76,170.021L109.76,170.021" style="fill:none;fill-rule:nonzero;stroke:rgb(124,124,124);stroke-width:1px;stroke-miterlimit:4;"/>
        </g>
        <g transform="matrix(0.979041,0,0,0.979041,2.521835,4.108383)">
            <circle cx="98.81" cy="167.871" r="7.92" style="fill:rgb(233,233,234);stroke:rgb(146,146,146);stroke-width:1px;stroke-miterlimit:4;"/>
        </g>
        <g transform="matrix(0.979041,0,0,0.979041,2.521835,4.108383)">
            <path d="M104.93,167.871C104.93,164.491 102.19,161.751 98.81,161.751C95.43,161.751 92.69,164.491 92.69,167.871C92.69,171.251 95.43,173.991 98.81,173.991C102.19,173.991 104.93,171.251 104.93,167.871Z" style="fill:rgb(137,137,137);fill-rule:nonzero;stroke:rgb(179,179,179);stroke-width:1px;stroke-miterlimit:4;"/>
        </g>
        <g transform="matrix(0.979041,0,0,0.979041,2.521835,4.108383)">
            <path d="M1.25,207.471L23.57,207.471" style="fill:none;fill-rule:nonzero;stroke:white;stroke-width:3px;stroke-miterlimit:4;"/>
        </g>
        <g transform="matrix(0.979041,0,0,0.979041,2.521835,4.108383)">
            <path d="M23.21,207.471C23.21,201.511 18.38,196.671 12.41,196.671C6.44,196.671 1.61,201.501 1.61,207.471C1.61,213.441 6.44,218.271 12.41,218.271C18.38,218.271 23.21,213.431 23.21,207.471Z" style="fill:rgb(176,172,176);fill-rule:nonzero;stroke:rgb(149,149,149);stroke-width:1px;stroke-miterlimit:4;"/>
        </g>
        <g transform="matrix(0.979041,0,0,0.979041,2.521835,4.108383)">
            <path d="M23.57,207.471C23.57,201.311 18.57,196.671 12.41,196.671C6.25,196.671 1.25,201.311 1.25,207.471C1.25,213.631 6.25,218.631 12.41,218.631C18.57,218.631 23.57,213.631 23.57,207.471Z" style="fill:none;fill-rule:nonzero;stroke:rgb(193,193,193);stroke-width:1.5px;stroke-miterlimit:4;stroke-dasharray:1.5,1.5;"/>
        </g>
        <g transform="matrix(0.979041,0,0,0.979041,2.521835,4.108383)">
            <path d="M1.36,206.461L23.57,206.461" style="fill:none;fill-rule:nonzero;stroke:rgb(115,115,115);stroke-width:1px;stroke-miterlimit:4;"/>
        </g>
        <g transform="matrix(0.979041,0,0,0.979041,2.521835,4.108383)">
            <path d="M1.36,209.621L23.36,209.621" style="fill:none;fill-rule:nonzero;stroke:rgb(124,124,124);stroke-width:1px;stroke-miterlimit:4;"/>
        </g>
        <g transform="matrix(0.979041,0,0,0.979041,2.521835,4.108383)">
            <circle cx="12.41" cy="207.471" r="7.92" style="fill:rgb(233,233,234);stroke:rgb(146,146,146);stroke-width:1px;stroke-miterlimit:4;"/>
        </g>
        <g transform="matrix(0.979041,0,0,0.979041,2.521835,4.108383)">
            <path d="M18.53,207.471C18.53,204.091 15.79,201.351 12.41,201.351C9.03,201.351 6.29,204.091 6.29,207.471C6.29,210.851 9.03,213.591 12.41,213.591C15.79,213.591 18.53,210.851 18.53,207.471Z" style="fill:rgb(137,137,137);fill-rule:nonzero;stroke:rgb(179,179,179);stroke-width:1px;stroke-miterlimit:4;"/>
        </g>
        <g transform="matrix(0.979041,0,0,0.979041,2.521835,4.108383)">
            <path d="M52.01,207.471C52.01,201.511 47.18,196.671 41.21,196.671C35.24,196.671 30.41,201.501 30.41,207.471C30.41,213.441 35.24,218.271 41.21,218.271C47.18,218.271 52.01,213.431 52.01,207.471Z" style="fill:rgb(176,172,176);fill-rule:nonzero;stroke:rgb(149,149,149);stroke-width:1px;stroke-miterlimit:4;"/>
        </g>
        <g transform="matrix(0.979041,0,0,0.979041,2.521835,4.108383)">
            <path d="M52.37,207.471C52.37,201.311 47.37,196.671 41.21,196.671C35.05,196.671 30.05,201.311 30.05,207.471C30.05,213.631 35.05,218.631 41.21,218.631C47.37,218.631 52.37,213.631 52.37,207.471Z" style="fill:none;fill-rule:nonzero;stroke:rgb(193,193,193);stroke-width:1.5px;stroke-miterlimit:4;stroke-dasharray:1.5,1.5;"/>
        </g>
        <g transform="matrix(0.979041,0,0,0.979041,2.521835,4.108383)">
            <path d="M30.16,206.461L52.37,206.461" style="fill:none;fill-rule:nonzero;stroke:rgb(115,115,115);stroke-width:1px;stroke-miterlimit:4;"/>
        </g>
        <g transform="matrix(0.979041,0,0,0.979041,2.521835,4.108383)">
            <path d="M30.16,209.621L52.16,209.621" style="fill:none;fill-rule:nonzero;stroke:rgb(124,124,124);stroke-width:1px;stroke-miterlimit:4;"/>
        </g>
        <g transform="matrix(0.979041,0,0,0.979041,2.521835,4.108383)">
            <circle cx="41.21" cy="207.471" r="7.92" style="fill:rgb(233,233,234);stroke:rgb(146,146,146);stroke-width:1px;stroke-miterlimit:4;"/>
        </g>
        <g transform="matrix(0.979041,0,0,0.979041,2.521835,4.108383)">
            <path d="M47.33,207.471C47.33,204.091 44.59,201.351 41.21,201.351C37.83,201.351 35.09,204.091 35.09,207.471C35.09,210.851 37.83,213.591 41.21,213.591C44.59,213.591 47.33,210.851 47.33,207.471Z" style="fill:rgb(137,137,137);fill-rule:nonzero;stroke:rgb(179,179,179);stroke-width:1px;stroke-miterlimit:4;"/>
        </g>
        <g transform="matrix(0.979041,0,0,0.979041,2.521835,4.108383)">
            <path d="M80.81,207.471C80.81,201.511 75.98,196.671 70.01,196.671C64.04,196.671 59.21,201.501 59.21,207.471C59.21,213.441 64.04,218.271 70.01,218.271C75.98,218.271 80.81,213.431 80.81,207.471Z" style="fill:rgb(176,172,176);fill-rule:nonzero;stroke:rgb(149,149,149);stroke-width:1px;stroke-miterlimit:4;"/>
        </g>
        <g transform="matrix(0.979041,0,0,0.979041,2.521835,4.108383)">
            <path d="M81.17,207.471C81.17,201.311 76.17,196.671 70.01,196.671C63.85,196.671 58.85,201.311 58.85,207.471C58.85,213.631 63.85,218.631 70.01,218.631C76.17,218.631 81.17,213.631 81.17,207.471Z" style="fill:none;fill-rule:nonzero;stroke:rgb(193,193,193);stroke-width:1.5px;stroke-miterlimit:4;stroke-dasharray:1.5,1.5;"/>
        </g>
        <g transform="matrix(0.979041,0,0,0.979041,2.521835,4.108383)">
            <path d="M58.96,206.461L81.17,206.461" style="fill:none;fill-rule:nonzero;stroke:rgb(115,115,115);stroke-width:1px;stroke-miterlimit:4;"/>
        </g>
        <g transform="matrix(0.979041,0,0,0.979041,2.521835,4.108383)">
            <path d="M58.96,209.621L80.96,209.621" style="fill:none;fill-rule:nonzero;stroke:rgb(124,124,124);stroke-width:1px;stroke-miterlimit:4;"/>
        </g>
        <g transform="matrix(0.979041,0,0,0.979041,2.521835,4.108383)">
            <circle cx="70.01" cy="207.471" r="7.92" style="fill:rgb(233,233,234);stroke:rgb(146,146,146);stroke-width:1px;stroke-miterlimit:4;"/>
        </g>
        <g transform="matrix(0.979041,0,0,0.979041,2.521835,4.108383)">
            <path d="M76.13,207.471C76.13,204.091 73.39,201.351 70.01,201.351C66.63,201.351 63.89,204.091 63.89,207.471C63.89,210.851 66.63,213.591 70.01,213.591C73.39,213.591 76.13,210.851 76.13,207.471Z" style="fill:rgb(137,137,137);fill-rule:nonzero;stroke:rgb(179,179,179);stroke-width:1px;stroke-miterlimit:4;"/>
        </g>
        <g transform="matrix(0.979041,0,0,0.979041,2.521835,4.108383)">
            <path d="M109.61,207.471C109.61,201.511 104.78,196.671 98.81,196.671C92.84,196.671 88.01,201.501 88.01,207.471C88.01,213.441 92.84,218.271 98.81,218.271C104.78,218.271 109.61,213.431 109.61,207.471Z" style="fill:rgb(176,172,176);fill-rule:nonzero;stroke:rgb(149,149,149);stroke-width:1px;stroke-miterlimit:4;"/>
        </g>
        <g transform="matrix(0.979041,0,0,0.979041,2.521835,4.108383)">
            <path d="M109.97,207.471C109.97,201.311 104.97,196.671 98.81,196.671C92.65,196.671 87.65,201.311 87.65,207.471C87.65,213.631 92.65,218.631 98.81,218.631C104.97,218.631 109.97,213.631 109.97,207.471Z" style="fill:none;fill-rule:nonzero;stroke:rgb(193,193,193);stroke-width:1.5px;stroke-miterlimit:4;stroke-dasharray:1.5,1.5;"/>
        </g>
        <g transform="matrix(0.979041,0,0,0.979041,2.521835,4.108383)">
            <path d="M87.76,206.461L109.97,206.461" style="fill:none;fill-rule:nonzero;stroke:rgb(115,115,115);stroke-width:1px;stroke-miterlimit:4;"/>
        </g>
        <g transform="matrix(0.979041,0,0,0.979041,2.521835,4.108383)">
            <path d="M87.76,209.621L109.76,209.621" style="fill:none;fill-rule:nonzero;stroke:rgb(124,124,124);stroke-width:1px;stroke-miterlimit:4;"/>
        </g>
        <g transform="matrix(0.979041,0,0,0.979041,2.521835,4.108383)">
            <circle cx="98.81" cy="207.471" r="7.92" style="fill:rgb(233,233,234);stroke:rgb(146,146,146);stroke-width:1px;stroke-miterlimit:4;"/>
        </g>
        <g transform="matrix(0.979041,0,0,0.979041,2.521835,4.108383)">
            <path d="M104.93,207.471C104.93,204.091 102.19,201.351 98.81,201.351C95.43,201.351 92.69,204.091 92.69,207.471C92.69,210.851 95.43,213.591 98.81,213.591C102.19,213.591 104.93,210.851 104.93,207.471Z" style="fill:rgb(137,137,137);fill-rule:nonzero;stroke:rgb(179,179,179);stroke-width:1px;stroke-miterlimit:4;"/>
        </g>
        <g transform="matrix(0.979041,0,0,0.979041,2.521835,4.108383)">
            <g transform="matrix(-0,-1,1,-0,-289.48,388.33)">
                <rect x="47.73" y="337.491" width="3.39" height="2.83" style="fill:rgb(29,29,27);"/>
            </g>
            <g transform="matrix(-0,-1,1,-0,-285.59,392.22)">
                <rect x="51.62" y="337.491" width="3.39" height="2.83" style="fill:rgb(29,29,27);"/>
            </g>
            <g transform="matrix(-0,-1,1,-0,-281.7,396.11)">
                <rect x="55.51" y="337.491" width="3.39" height="2.83" style="fill:rgb(29,29,27);"/>
            </g>
            <g transform="matrix(-0,-1,1,-0,-278.19,400.39)">
                <rect x="59.02" y="337.871" width="4.16" height="2.83" style="fill:rgb(29,29,27);"/>
            </g>
            <g transform="matrix(-0,-1,1,-0,-273.92,403.89)">
                <rect x="63.29" y="337.491" width="3.39" height="2.83" style="fill:rgb(29,29,27);"/>
            </g>
            <g transform="matrix(-0,-1,1,-0,-270.03,407.78)">
                <rect x="67.18" y="337.491" width="3.39" height="2.83" style="fill:rgb(29,29,27);"/>
            </g>
            <g transform="matrix(-0,-1,1,-0,-266.14,411.67)">
                <rect x="71.07" y="337.491" width="3.39" height="2.83" style="fill:rgb(29,29,27);"/>
            </g>
            <g transform="matrix(-0,-1,1,-0,-262.63,415.95)">
                <rect x="74.58" y="337.871" width="4.16" height="2.83" style="fill:rgb(29,29,27);"/>
            </g>
        </g>
        <g transform="matrix(0.979041,0,0,0.979041,2.521835,4.108383)">
            <path d="M52,247.041C52,241.081 47.17,236.241 41.2,236.241C35.23,236.241 30.4,241.071 30.4,247.041C30.4,253.011 35.23,257.841 41.2,257.841C47.17,257.841 52,253.001 52,247.041Z" style="fill:rgb(176,172,176);fill-rule:nonzero;stroke:rgb(149,149,149);stroke-width:1px;stroke-miterlimit:4;"/>
        </g>
        <g transform="matrix(0.979041,0,0,0.979041,2.521835,4.108383)">
            <path d="M52.36,247.041C52.36,240.881 47.36,236.241 41.2,236.241C35.04,236.241 30.04,240.881 30.04,247.041C30.04,253.201 35.04,258.201 41.2,258.201C47.36,258.201 52.36,253.201 52.36,247.041Z" style="fill:none;fill-rule:nonzero;stroke:rgb(193,193,193);stroke-width:1.5px;stroke-miterlimit:4;stroke-dasharray:1.5,1.5;"/>
        </g>
        <g transform="matrix(0.979041,0,0,0.979041,2.521835,4.108383)">
            <path d="M30.16,246.021L52.36,246.021" style="fill:none;fill-rule:nonzero;stroke:rgb(115,115,115);stroke-width:1px;stroke-miterlimit:4;"/>
        </g>
        <g transform="matrix(0.979041,0,0,0.979041,2.521835,4.108383)">
            <path d="M30.16,249.181L52.16,249.181" style="fill:none;fill-rule:nonzero;stroke:rgb(124,124,124);stroke-width:1px;stroke-miterlimit:4;"/>
        </g>
        <g transform="matrix(0.979041,0,0,0.979041,2.521835,4.108383)">
            <circle cx="41.2" cy="247.041" r="7.92" style="fill:rgb(233,233,234);stroke:rgb(146,146,146);stroke-width:1px;stroke-miterlimit:4;"/>
        </g>
        <g transform="matrix(0.979041,0,0,0.979041,2.521835,4.108383)">
            <path d="M47.32,247.041C47.32,243.661 44.58,240.921 41.2,240.921C37.82,240.921 35.08,243.661 35.08,247.041C35.08,250.421 37.82,253.161 41.2,253.161C44.58,253.161 47.32,250.421 47.32,247.041Z" style="fill:rgb(137,137,137);fill-rule:nonzero;stroke:rgb(179,179,179);stroke-width:1px;stroke-miterlimit:4;"/>
        </g>
        <g transform="matrix(0.979041,0,0,0.979041,2.521835,4.108383)">
            <path d="M23.21,247.131C23.21,241.171 18.38,236.331 12.41,236.331C6.44,236.331 1.61,241.161 1.61,247.131C1.61,253.101 6.44,257.931 12.41,257.931C18.38,257.931 23.21,253.091 23.21,247.131Z" style="fill:rgb(176,172,176);fill-rule:nonzero;stroke:rgb(149,149,149);stroke-width:1px;stroke-miterlimit:4;"/>
        </g>
        <g transform="matrix(0.979041,0,0,0.979041,2.521835,4.108383)">
            <path d="M23.57,247.131C23.57,240.971 18.57,236.331 12.41,236.331C6.25,236.331 1.25,240.971 1.25,247.131C1.25,253.291 6.25,258.291 12.41,258.291C18.57,258.291 23.57,253.291 23.57,247.131Z" style="fill:none;fill-rule:nonzero;stroke:rgb(193,193,193);stroke-width:1.5px;stroke-miterlimit:4;stroke-dasharray:1.5,1.5;"/>
        </g>
        <g transform="matrix(0.979041,0,0,0.979041,2.521835,4.108383)">
            <path d="M1.36,246.121L23.57,246.121" style="fill:none;fill-rule:nonzero;stroke:rgb(115,115,115);stroke-width:1px;stroke-miterlimit:4;"/>
        </g>
        <g transform="matrix(0.979041,0,0,0.979041,2.521835,4.108383)">
            <path d="M1.36,249.271L23.36,249.271" style="fill:none;fill-rule:nonzero;stroke:rgb(124,124,124);stroke-width:1px;stroke-miterlimit:4;"/>
        </g>
        <g transform="matrix(0.979041,0,0,0.979041,2.521835,4.108383)">
            <circle cx="12.41" cy="247.131" r="7.92" style="fill:rgb(233,233,234);stroke:rgb(146,146,146);stroke-width:1px;stroke-miterlimit:4;"/>
        </g>
        <g transform="matrix(0.979041,0,0,0.979041,2.521835,4.108383)">
            <path d="M18.53,247.131C18.53,243.751 15.79,241.011 12.41,241.011C9.03,241.011 6.29,243.751 6.29,247.131C6.29,250.511 9.03,253.251 12.41,253.251C15.79,253.251 18.53,250.511 18.53,247.131Z" style="fill:rgb(137,137,137);fill-rule:nonzero;stroke:rgb(179,179,179);stroke-width:1px;stroke-miterlimit:4;"/>
        </g>
        <g transform="matrix(0.979041,0,0,0.979041,2.521835,4.108383)">
            <path d="M109.65,247.001C109.65,241.041 104.82,236.201 98.85,236.201C92.88,236.201 88.05,241.031 88.05,247.001C88.05,252.971 92.88,257.801 98.85,257.801C104.82,257.801 109.65,252.961 109.65,247.001Z" style="fill:rgb(176,172,176);fill-rule:nonzero;stroke:rgb(149,149,149);stroke-width:1px;stroke-miterlimit:4;"/>
        </g>
        <g transform="matrix(0.979041,0,0,0.979041,2.521835,4.108383)">
            <path d="M110.01,247.001C110.01,240.841 105.01,236.201 98.85,236.201C92.69,236.201 87.69,240.841 87.69,247.001C87.69,253.161 92.69,258.161 98.85,258.161C105.01,258.161 110.01,253.161 110.01,247.001Z" style="fill:none;fill-rule:nonzero;stroke:rgb(193,193,193);stroke-width:1.5px;stroke-miterlimit:4;stroke-dasharray:1.5,1.5;"/>
        </g>
        <g transform="matrix(0.979041,0,0,0.979041,2.521835,4.108383)">
            <path d="M87.81,245.981L110.01,245.981" style="fill:none;fill-rule:nonzero;stroke:rgb(115,115,115);stroke-width:1px;stroke-miterlimit:4;"/>
        </g>
        <g transform="matrix(0.979041,0,0,0.979041,2.521835,4.108383)">
            <path d="M87.81,249.141L109.81,249.141" style="fill:none;fill-rule:nonzero;stroke:rgb(124,124,124);stroke-width:1px;stroke-miterlimit:4;"/>
        </g>
        <g transform="matrix(0.979041,0,0,0.979041,2.521835,4.108383)">
            <circle cx="98.85" cy="247.001" r="7.92" style="fill:rgb(233,233,234);stroke:rgb(146,146,146);stroke-width:1px;stroke-miterlimit:4;"/>
        </g>
        <g transform="matrix(0.979041,0,0,0.979041,2.521835,4.108383)">
            <path d="M104.97,247.001C104.97,243.621 102.23,240.881 98.85,240.881C95.47,240.881 92.73,243.621 92.73,247.001C92.73,250.381 95.47,253.121 98.85,253.121C102.23,253.121 104.97,250.381 104.97,247.001Z" style="fill:rgb(137,137,137);fill-rule:nonzero;stroke:rgb(179,179,179);stroke-width:1px;stroke-miterlimit:4;"/>
        </g>
        <g transform="matrix(0.979041,0,0,0.979041,2.521835,4.108383)">
            <path d="M80.89,247.051C80.89,241.091 76.06,236.251 70.09,236.251C64.12,236.251 59.29,241.081 59.29,247.051C59.29,253.021 64.12,257.851 70.09,257.851C76.06,257.851 80.89,253.011 80.89,247.051Z" style="fill:rgb(176,172,176);fill-rule:nonzero;stroke:rgb(149,149,149);stroke-width:1px;stroke-miterlimit:4;"/>
        </g>
        <g transform="matrix(0.979041,0,0,0.979041,2.521835,4.108383)">
            <path d="M81.25,247.051C81.25,240.891 76.25,236.251 70.09,236.251C63.93,236.251 58.93,240.891 58.93,247.051C58.93,253.211 63.93,258.211 70.09,258.211C76.25,258.211 81.25,253.211 81.25,247.051Z" style="fill:none;fill-rule:nonzero;stroke:rgb(193,193,193);stroke-width:1.5px;stroke-miterlimit:4;stroke-dasharray:1.5,1.5;"/>
        </g>
        <g transform="matrix(0.979041,0,0,0.979041,2.521835,4.108383)">
            <path d="M59.04,246.041L81.25,246.041" style="fill:none;fill-rule:nonzero;stroke:rgb(115,115,115);stroke-width:1px;stroke-miterlimit:4;"/>
        </g>
        <g transform="matrix(0.979041,0,0,0.979041,2.521835,4.108383)">
            <path d="M59.04,249.201L81.04,249.201" style="fill:none;fill-rule:nonzero;stroke:rgb(124,124,124);stroke-width:1px;stroke-miterlimit:4;"/>
        </g>
        <g transform="matrix(0.979041,0,0,0.979041,2.521835,4.108383)">
            <circle cx="70.09" cy="247.051" r="7.92" style="fill:rgb(233,233,234);stroke:rgb(146,146,146);stroke-width:1px;stroke-miterlimit:4;"/>
        </g>
        <g transform="matrix(0.979041,0,0,0.979041,2.521835,4.108383)">
            <path d="M76.21,247.051C76.21,243.671 73.47,240.931 70.09,240.931C66.71,240.931 63.97,243.671 63.97,247.051C63.97,250.431 66.71,253.171 70.09,253.171C73.47,253.171 76.21,250.431 76.21,247.051Z" style="fill:rgb(137,137,137);fill-rule:nonzero;stroke:rgb(179,179,179);stroke-width:1px;stroke-miterlimit:4;"/>
        </g>
        <g transform="matrix(0.961186,0.186127,-0.186127,0.961186,26.209835,-14.28741)">
            <path d="M86.45,118.331C86.45,122.111 89.51,125.171 93.29,125.171C97.07,125.171 100.13,122.111 100.13,118.331C100.13,114.551 97.07,111.491 93.29,111.491C89.51,111.491 86.45,114.551 86.45,118.331Z" style="fill:rgb(88,88,88);fill-rule:nonzero;stroke:rgb(128,128,128);stroke-width:3px;stroke-miterlimit:4;"/>
        </g>
        <g transform="matrix(-0,-0.979041,0.979041,-0,-266.244563,291.496144)">
            <path d="M22.04,283.171C22.04,281.25 20.481,279.691 18.56,279.691L0.46,279.691C-1.461,279.691 -3.02,281.25 -3.02,283.171L-3.02,284.881C-3.02,286.802 -1.461,288.361 0.46,288.361L18.56,288.361C20.481,288.361 22.04,286.802 22.04,284.881L22.04,283.171Z" style="fill:rgb(35,31,32);stroke:rgb(58,58,58);stroke-width:0.5px;stroke-miterlimit:4;"/>
        </g>
        <g transform="matrix(0.979041,0,0,0.979041,2.521835,4.108383)">
            <circle cx="99.71" cy="332.801" r="5.67" style="fill:rgb(29,29,27);"/>
        </g>
    </g>
    <!-- Knob CV output jacks row y=286 -->
    <g id="knob-jacks">
        <g transform="matrix(0.979041,0,0,0.979041,2.521835,4.108383)">
            <path d="M18.02,287.93C18.02,281.81 16.22,280.01 10.10,280.01C3.98,280.01 2.18,281.81 2.18,287.93C2.18,294.05 3.98,295.85 10.10,295.85C16.22,295.85 18.02,294.05 18.02,287.93Z" style="fill:rgb(176,172,176);fill-rule:nonzero;stroke:rgb(149,149,149);stroke-width:1px;stroke-miterlimit:4;"/>
        </g>
        <g transform="matrix(0.979041,0,0,0.979041,2.521835,4.108383)">
            <path d="M18.02,287.93C18.02,281.81 16.22,280.01 10.10,280.01C3.98,280.01 2.18,281.81 2.18,287.93C2.18,294.05 3.98,295.85 10.10,295.85C16.22,295.85 18.02,294.05 18.02,287.93Z" style="fill:none;fill-rule:nonzero;stroke:rgb(193,193,193);stroke-width:1.5px;stroke-miterlimit:4;stroke-dasharray:1.5,1.5;"/>
        </g>
        <g transform="matrix(0.979041,0,0,0.979041,2.521835,4.108383)">
            <path d="M2.18,286.92L18.02,286.92" style="fill:none;fill-rule:nonzero;stroke:rgb(115,115,115);stroke-width:1px;stroke-miterlimit:4;"/>
        </g>
        <g transform="matrix(0.979041,0,0,0.979041,2.521835,4.108383)">
            <path d="M2.18,290.08L18.02,290.08" style="fill:none;fill-rule:nonzero;stroke:rgb(124,124,124);stroke-width:1px;stroke-miterlimit:4;"/>
        </g>
        <g transform="matrix(0.979041,0,0,0.979041,2.521835,4.108383)">
            <circle cx="10.10" cy="287.93" r="7.92" style="fill:rgb(233,233,234);stroke:rgb(146,146,146);stroke-width:1px;stroke-miterlimit:4;"/>
        </g>
        <g transform="matrix(0.979041,0,0,0.979041,2.521835,4.108383)">
            <path d="M16.22,287.93C16.22,284.55 13.48,281.81 10.10,281.81C6.72,281.81 3.98,284.55 3.98,287.93C3.98,291.31 6.72,294.05 10.10,294.05C13.48,294.05 16.22,291.31 16.22,287.93Z" style="fill:rgb(137,137,137);fill-rule:nonzero;stroke:rgb(179,179,179);stroke-width:1px;stroke-miterlimit:4;"/>
        </g>
        <g transform="matrix(0.979041,0,0,0.979041,2.521835,4.108383)">
            <path d="M47.44,287.93C47.44,281.81 45.64,280.01 39.52,280.01C33.40,280.01 31.60,281.81 31.60,287.93C31.60,294.05 33.40,295.85 39.52,295.85C45.64,295.85 47.44,294.05 47.44,287.93Z" style="fill:rgb(176,172,176);fill-rule:nonzero;stroke:rgb(149,149,149);stroke-width:1px;stroke-miterlimit:4;"/>
        </g>
        <g transform="matrix(0.979041,0,0,0.979041,2.521835,4.108383)">
            <path d="M47.44,287.93C47.44,281.81 45.64,280.01 39.52,280.01C33.40,280.01 31.60,281.81 31.60,287.93C31.60,294.05 33.40,295.85 39.52,295.85C45.64,295.85 47.44,294.05 47.44,287.93Z" style="fill:none;fill-rule:nonzero;stroke:rgb(193,193,193);stroke-width:1.5px;stroke-miterlimit:4;stroke-dasharray:1.5,1.5;"/>
        </g>
        <g transform="matrix(0.979041,0,0,0.979041,2.521835,4.108383)">
            <path d="M31.60,286.92L47.44,286.92" style="fill:none;fill-rule:nonzero;stroke:rgb(115,115,115);stroke-width:1px;stroke-miterlimit:4;"/>
        </g>
        <g transform="matrix(0.979041,0,0,0.979041,2.521835,4.108383)">
            <path d="M31.60,290.08L47.44,290.08" style="fill:none;fill-rule:nonzero;stroke:rgb(124,124,124);stroke-width:1px;stroke-miterlimit:4;"/>
        </g>
        <g transform="matrix(0.979041,0,0,0.979041,2.521835,4.108383)">
            <circle cx="39.52" cy="287.93" r="7.92" style="fill:rgb(233,233,234);stroke:rgb(146,146,146);stroke-width:1px;stroke-miterlimit:4;"/>
        </g>
        <g transform="matrix(0.979041,0,0,0.979041,2.521835,4.108383)">
            <path d="M45.64,287.93C45.64,284.55 42.90,281.81 39.52,281.81C36.14,281.81 33.40,284.55 33.40,287.93C33.40,291.31 36.14,294.05 39.52,294.05C42.90,294.05 45.64,291.31 45.64,287.93Z" style="fill:rgb(137,137,137);fill-rule:nonzero;stroke:rgb(179,179,179);stroke-width:1px;stroke-miterlimit:4;"/>
        </g>
        <g transform="matrix(0.979041,0,0,0.979041,2.521835,4.108383)">
            <path d="M76.85,287.93C76.85,281.81 75.05,280.01 68.93,280.01C62.81,280.01 61.01,281.81 61.01,287.93C61.01,294.05 62.81,295.85 68.93,295.85C75.05,295.85 76.85,294.05 76.85,287.93Z" style="fill:rgb(176,172,176);fill-rule:nonzero;stroke:rgb(149,149,149);stroke-width:1px;stroke-miterlimit:4;"/>
        </g>
        <g transform="matrix(0.979041,0,0,0.979041,2.521835,4.108383)">
            <path d="M76.85,287.93C76.85,281.81 75.05,280.01 68.93,280.01C62.81,280.01 61.01,281.81 61.01,287.93C61.01,294.05 62.81,295.85 68.93,295.85C75.05,295.85 76.85,294.05 76.85,287.93Z" style="fill:none;fill-rule:nonzero;stroke:rgb(193,193,193);stroke-width:1.5px;stroke-miterlimit:4;stroke-dasharray:1.5,1.5;"/>
        </g>
        <g transform="matrix(0.979041,0,0,0.979041,2.521835,4.108383)">
            <path d="M61.01,286.92L76.85,286.92" style="fill:none;fill-rule:nonzero;stroke:rgb(115,115,115);stroke-width:1px;stroke-miterlimit:4;"/>
        </g>
        <g transform="matrix(0.979041,0,0,0.979041,2.521835,4.108383)">
            <path d="M61.01,290.08L76.85,290.08" style="fill:none;fill-rule:nonzero;stroke:rgb(124,124,124);stroke-width:1px;stroke-miterlimit:4;"/>
        </g>
        <g transform="matrix(0.979041,0,0,0.979041,2.521835,4.108383)">
            <circle cx="68.93" cy="287.93" r="7.92" style="fill:rgb(233,233,234);stroke:rgb(146,146,146);stroke-width:1px;stroke-miterlimit:4;"/>
        </g>
        <g transform="matrix(0.979041,0,0,0.979041,2.521835,4.108383)">
            <path d="M75.05,287.93C75.05,284.55 72.31,281.81 68.93,281.81C65.55,281.81 62.81,284.55 62.81,287.93C62.81,291.31 65.55,294.05 68.93,294.05C72.31,294.05 75.05,291.31 75.05,287.93Z" style="fill:rgb(137,137,137);fill-rule:nonzero;stroke:rgb(179,179,179);stroke-width:1px;stroke-miterlimit:4;"/>
        </g>
        <g transform="matrix(0.979041,0,0,0.979041,2.521835,4.108383)">
            <path d="M106.27,287.93C106.27,281.81 104.47,280.01 98.35,280.01C92.23,280.01 90.43,281.81 90.43,287.93C90.43,294.05 92.23,295.85 98.35,295.85C104.47,295.85 106.27,294.05 106.27,287.93Z" style="fill:rgb(176,172,176);fill-rule:nonzero;stroke:rgb(149,149,149);stroke-width:1px;stroke-miterlimit:4;"/>
        </g>
        <g transform="matrix(0.979041,0,0,0.979041,2.521835,4.108383)">
            <path d="M106.27,287.93C106.27,281.81 104.47,280.01 98.35,280.01C92.23,280.01 90.43,281.81 90.43,287.93C90.43,294.05 92.23,295.85 98.35,295.85C104.47,295.85 106.27,294.05 106.27,287.93Z" style="fill:none;fill-rule:nonzero;stroke:rgb(193,193,193);stroke-width:1.5px;stroke-miterlimit:4;stroke-dasharray:1.5,1.5;"/>
        </g>
        <g transform="matrix(0.979041,0,0,0.979041,2.521835,4.108383)">
            <path d="M90.43,286.92L106.27,286.92" style="fill:none;fill-rule:nonzero;stroke:rgb(115,115,115);stroke-width:1px;stroke-miterlimit:4;"/>
        </g>
        <g transform="matrix(0.979041,0,0,0.979041,2.521835,4.108383)">
            <path d="M90.43,290.08L106.27,290.08" style="fill:none;fill-rule:nonzero;stroke:rgb(124,124,124);stroke-width:1px;stroke-miterlimit:4;"/>
        </g>
        <g transform="matrix(0.979041,0,0,0.979041,2.521835,4.108383)">
            <circle cx="98.35" cy="287.93" r="7.92" style="fill:rgb(233,233,234);stroke:rgb(146,146,146);stroke-width:1px;stroke-miterlimit:4;"/>
        </g>
        <g transform="matrix(0.979041,0,0,0.979041,2.521835,4.108383)">
            <path d="M104.47,287.93C104.47,284.55 101.73,281.81 98.35,281.81C94.97,281.81 92.23,284.55 92.23,287.93C92.23,291.31 94.97,294.05 98.35,294.05C101.73,294.05 104.47,291.31 104.47,287.93Z" style="fill:rgb(137,137,137);fill-rule:nonzero;stroke:rgb(179,179,179);stroke-width:1px;stroke-miterlimit:4;"/>
        </g>
    </g>
    <!-- VCV Bridge labels -->
    <g id="vcvbridge-labels">
        <!-- Title -->
        <text x="60" y="11" text-anchor="middle"
              font-family="'Arial Narrow', Arial, sans-serif" font-size="6" font-weight="700" letter-spacing="2"
              fill="rgb(212,175,55)">VCV BRIDGE</text>
        <text x="60" y="18" text-anchor="middle"
              font-family="'Arial Narrow', Arial, sans-serif" font-size="3.2" letter-spacing="0.8"
              fill="rgb(130,130,130)">MUSIC THING MODULAR</text>

        <!-- STS/RX/TX labels near lights -->
        <text x="50" y="26" text-anchor="middle" font-family="'Arial Narrow', Arial, sans-serif" font-size="3" fill="rgb(100,100,100)">STS</text>
        <text x="70" y="26" text-anchor="middle" font-family="'Arial Narrow', Arial, sans-serif" font-size="3" fill="rgb(100,100,100)">RX</text>
        <text x="82" y="26" text-anchor="middle" font-family="'Arial Narrow', Arial, sans-serif" font-size="3" fill="rgb(100,100,100)">TX</text>

        <!-- FROM / TO section headers -->
        <text x="27" y="148" text-anchor="middle" font-family="'Arial Narrow', Arial, sans-serif" font-size="4.5" font-weight="700" letter-spacing="1" fill="rgb(212,175,55)">FROM</text>
        <text x="84" y="148" text-anchor="middle" font-family="'Arial Narrow', Arial, sans-serif" font-size="4.5" font-weight="700" letter-spacing="1" fill="rgb(212,175,55)">TO</text>

        <!-- Centre divider -->
        <line x1="59" y1="150" x2="59" y2="265" stroke="rgb(80,80,80)" stroke-width="0.8" stroke-dasharray="3,3"/>

        <!-- Column sub-headers: 1 / 2 -->
        <text x="12" y="156" text-anchor="middle" font-family="'Arial Narrow', Arial, sans-serif" font-size="3.5" fill="rgb(191,191,191)">1</text>
        <text x="41" y="156" text-anchor="middle" font-family="'Arial Narrow', Arial, sans-serif" font-size="3.5" fill="rgb(191,191,191)">2</text>
        <text x="70" y="156" text-anchor="middle" font-family="'Arial Narrow', Arial, sans-serif" font-size="3.5" fill="rgb(191,191,191)">1</text>
        <text x="99" y="156" text-anchor="middle" font-family="'Arial Narrow', Arial, sans-serif" font-size="3.5" fill="rgb(191,191,191)">2</text>

        <!-- Row labels AUD / CV / PLS -->
        <text x="60" y="172" text-anchor="middle" font-family="'Arial Narrow', Arial, sans-serif" font-size="4" font-weight="700" letter-spacing="0.5" fill="rgb(212,175,55)">AUDIO</text>
        <text x="60" y="212" text-anchor="middle" font-family="'Arial Narrow', Arial, sans-serif" font-size="4" font-weight="700" letter-spacing="0.5" fill="rgb(212,175,55)">CV</text>
        <text x="60" y="223" text-anchor="middle" font-family="'Arial Narrow', Arial, sans-serif" font-size="2.8" fill="rgb(100,100,100)">3 kHz</text>
        <text x="60" y="251" text-anchor="middle" font-family="'Arial Narrow', Arial, sans-serif" font-size="4" font-weight="700" letter-spacing="0.5" fill="rgb(212,175,55)">PULSE</text>
        <text x="60" y="261" text-anchor="middle" font-family="'Arial Narrow', Arial, sans-serif" font-size="2.8" fill="rgb(100,100,100)">48 kHz</text>

        <!-- Knob outputs section header -->
        <text x="60" y="275" text-anchor="middle" font-family="'Arial Narrow', Arial, sans-serif" font-size="3.5" letter-spacing="1" fill="rgb(100,100,100)">KNOB CV OUTS</text>

        <!-- Knob labels M / X / Y / SW -->
        <text x="12"  y="299" text-anchor="middle" font-family="'Arial Narrow', Arial, sans-serif" font-size="4" font-weight="700" fill="rgb(212,175,55)">M</text>
        <text x="41"  y="299" text-anchor="middle" font-family="'Arial Narrow', Arial, sans-serif" font-size="4" font-weight="700" fill="rgb(212,175,55)">X</text>
        <text x="70"  y="299" text-anchor="middle" font-family="'Arial Narrow', Arial, sans-serif" font-size="4" font-weight="700" fill="rgb(212,175,55)">Y</text>
        <text x="99"  y="299" text-anchor="middle" font-family="'Arial Narrow', Arial, sans-serif" font-size="4" font-weight="700" fill="rgb(212,175,55)">SW</text>

        <!-- USB hint -->
        <text x="60" y="318" text-anchor="middle" font-family="'Arial Narrow', Arial, sans-serif" font-size="3.2" letter-spacing="0.5" fill="rgb(100,100,100)">USB CDC SERIAL</text>
        <text x="60" y="326" text-anchor="middle" font-family="'Arial Narrow', Arial, sans-serif" font-size="2.8" fill="rgb(75,75,75)">RIGHT-CLICK TO CONNECT</text>
    </g>
</svg>
